<?xml version="1.0" encoding="utf-8"?>
<!-- Generator: Adobe Illustrator 16.0.0, SVG Export Plug-In . SVG Version: 6.00 Build 0)  -->
<!DOCTYPE svg PUBLIC "-//W3C//DTD SVG 1.1//EN" "http://www.w3.org/Graphics/SVG/1.1/DTD/svg11.dtd">
<svg version="1.1" id="Layer_1" xmlns="http://www.w3.org/2000/svg" xmlns:xlink="http://www.w3.org/1999/xlink" x="0px" y="0px"
	 width="290px" height="140px" viewBox="0 0 290 140" enable-background="new 0 0 290 140" xml:space="preserve">
<g id="slide-3">
	<path fill="#E0E0E0" d="M100.097,76.05H32.292v-1h67.805V76.05z M100.976,75.302l-6.763-6.764l-0.707,0.707l6.763,6.764
		L100.976,75.302z M100.65,75.704l-0.707-0.707l-6.763,6.764l0.707,0.707L100.65,75.704z M238.995,35.96l-0.584-0.812
		l-45.946,32.973l0.584,0.812L238.995,35.96z M239.34,34.897l-9.242-2.465l-0.258,0.969l9.24,2.463L239.34,34.897z M239.258,35.409
		l-0.967-0.258l-2.465,9.24l0.969,0.258L239.258,35.409z M239.57,109.774L193.625,76.8l-0.584,0.812l45.945,32.973L239.57,109.774z
		 M239.914,110.837l-0.26-0.967l-9.238,2.465l0.258,0.967L239.914,110.837z M239.836,110.325l-2.466-9.242l-0.968,0.258l2.466,9.242
		L239.836,110.325z M248.09,72.81l-54.808-0.275l-0.007,1l54.807,0.275L248.09,72.81z M248.963,73.563l-0.703-0.711l-6.791,6.732
		l0.703,0.711L248.963,73.563z M248.639,73.157l-6.732-6.791l-0.711,0.705l6.732,6.792L248.639,73.157z M35.427,85.942
		c0-5.586-4.545-10.131-10.131-10.131s-10.131,4.545-10.131,10.131s4.545,10.131,10.131,10.131S35.427,91.528,35.427,85.942z
		 M34.427,85.942c0,5.035-4.096,9.131-9.131,9.131s-9.131-4.096-9.131-9.131s4.096-9.131,9.131-9.131S34.427,80.907,34.427,85.942z
		 M193.428,73.942c0-5.586-4.545-10.131-10.131-10.131s-10.131,4.545-10.131,10.131s4.545,10.131,10.131,10.131
		S193.428,79.528,193.428,73.942z M192.428,73.942c0,5.035-4.096,9.131-9.131,9.131s-9.131-4.096-9.131-9.131
		s4.096-9.131,9.131-9.131S192.428,68.907,192.428,73.942z"/>
	<path fill="#C21E55" d="M140.143,74.843c-0.172,0-0.344-0.043-0.5-0.133l-20-11.541c-0.31-0.18-0.5-0.51-0.5-0.866
		c0-0.355,0.19-0.688,0.5-0.865l20-11.551c0.311-0.181,0.691-0.181,1,0l20,11.551c0.31,0.18,0.5,0.51,0.5,0.865
		c0,0.356-0.19,0.688-0.5,0.866l-20,11.541C140.488,74.8,140.316,74.843,140.143,74.843z M122.143,62.303l18,10.386l18-10.386
		l-18-10.396L122.143,62.303z M140.143,97.937c-0.172,0-0.344-0.045-0.5-0.135l-20-11.541c-0.31-0.178-0.5-0.508-0.5-0.865V62.303
		c0-0.355,0.19-0.688,0.5-0.865c0.309-0.179,0.689-0.181,1,0l20,11.54c0.312,0.182,0.5,0.512,0.5,0.865v23.094
		c0,0.357-0.188,0.689-0.5,0.865C140.488,97.892,140.316,97.937,140.143,97.937z M121.143,84.817l18,10.387V74.421l-18-10.387
		V84.817z M140.141,97.937c-0.173,0-0.347-0.045-0.5-0.135c-0.311-0.178-0.5-0.508-0.5-0.865V73.843c0-0.354,0.189-0.688,0.5-0.865
		l20.002-11.54c0.312-0.181,0.69-0.179,1,0c0.31,0.18,0.5,0.51,0.5,0.865v23.093c0,0.356-0.19,0.688-0.5,0.865l-20.002,11.54
		C140.486,97.892,140.314,97.937,140.141,97.937z M141.141,74.421v20.783l18.002-10.387V64.034L141.141,74.421z M288.381,78.903
		c-0.764-0.725-6.701-2.521-9.189-3.254c0.187-0.104,0.377-0.197,0.558-0.314h7.676c-2.051,0-2.457-9.26-2.457-9.26
		s0.005-0.428,0.005-1.475c0-5.767-1.722-10.438-9.47-10.438c-7.741,0-9.466,4.674-9.466,10.438c0,1.047,0.011,1.475,0.011,1.475
		s-0.411,9.26-2.459,9.26h7.67c0.164,0.105,0.339,0.193,0.507,0.289c-2.384,0.707-8.31,2.52-9.119,3.279
		c-1.613,1.516-2.429,5.305-0.812,7.574c0,0,0.922,0.76,13.736,0.76c12.816,0,13.617-0.76,13.617-0.76
		C290.784,84.208,289.984,80.419,288.381,78.903 M288.309,85.37c-0.842,0.168-3.715,0.545-12.742,0.545
		c-9.094,0-12.008-0.381-12.863-0.553c-0.924-1.771-0.211-4.496,0.82-5.469c0.695-0.52,5.328-2.053,9.334-3.213v-1.969
		c-0.287-0.137-0.565-0.295-0.846-0.479l-0.344-0.226h-0.412h-5.025c0.48-1.37,0.892-3.452,1.098-6.614l0.145-1.461
		c-0.056-0.523-0.082-0.947-0.082-1.334c0-6.478,2.352-9.115,8.112-9.115c5.767,0,8.114,2.639,8.114,9.115
		c0,0.387-0.021,0.811-0.079,1.334l0.146,1.461c0.205,3.162,0.614,5.244,1.094,6.614h-5.027h-0.412l-0.343,0.226
		c-0.274,0.185-0.56,0.343-0.845,0.478v2.017c4.057,1.164,8.662,2.668,9.313,3.136C288.521,80.86,289.227,83.595,288.309,85.37
		 M282.702,24.895c-0.875-0.851-7.774-3.174-8.825-3.523c3.217-2.117,5.18-6.582,5.18-10.785c0-5.766-1.684-10.438-9.254-10.438
		s-9.254,4.674-9.254,10.438c0,4.367,2.112,9.023,5.561,11.027c-2.418,0.709-8.438,2.521-9.227,3.281
		c-1.576,1.516-2.367,5.305-0.793,7.576c0,0,1.17,0.76,13.674,0.76s13.723-0.76,13.723-0.76
		C285.047,30.198,284.27,26.409,282.702,24.895 M282.618,31.337c-0.905,0.177-3.938,0.568-12.854,0.568
		c-8.904,0-11.916-0.393-12.812-0.564c-0.888-1.78-0.19-4.495,0.808-5.459c0.707-0.524,5.467-2.075,9.547-3.237h0.377l0.301-1.5
		v-0.113c-3.812-1.205-6.139-6.102-6.139-10.471c0-5.025,1.326-9.101,7.957-9.101c6.629,0,7.955,4.074,7.955,9.101
		c0,3.836-1.795,8.073-4.814,9.869v0.715l0.308,1.5h0.269c3.541,1.178,7.66,2.725,8.271,3.201
		C282.811,26.841,283.498,29.555,282.618,31.337 M282.702,131.517c-0.875-0.85-7.774-3.174-8.825-3.521
		c3.217-2.117,5.18-6.582,5.18-10.785c0-5.77-1.684-10.438-9.254-10.438s-9.254,4.674-9.254,10.438
		c0,4.367,2.112,9.021,5.561,11.025c-2.418,0.709-8.438,2.521-9.227,3.281c-1.576,1.518-2.367,5.307-0.793,7.576
		c0,0,1.17,0.76,13.674,0.76s13.723-0.76,13.723-0.76C285.047,136.821,284.27,133.032,282.702,131.517 M282.618,137.96
		c-0.905,0.176-3.938,0.568-12.854,0.568c-8.904,0-11.916-0.395-12.812-0.564c-0.888-1.781-0.19-4.496,0.808-5.459
		c0.707-0.525,5.467-2.076,9.547-3.238h0.377l0.301-1.5v-0.115c-3.812-1.201-6.139-6.1-6.139-10.469c0-5.023,1.326-9.1,7.957-9.1
		c6.629,0,7.955,4.074,7.955,9.1c0,3.836-1.795,8.074-4.814,9.869v0.715l0.308,1.5h0.269c3.541,1.178,7.66,2.727,8.271,3.201
		C282.811,133.464,283.498,136.177,282.618,137.96 M10.885,87.964c-6.153-0.088-8.462-0.393-9.223-0.539
		c-0.885-1.781-0.191-4.496,0.807-5.459c0.708-0.525,5.468-2.076,9.547-3.238h0.378l0.301-1.5v-0.111
		c-3.814-1.205-6.14-6.102-6.14-10.471c0-5.025,1.327-9.101,7.957-9.101c6.63,0,7.956,4.074,7.956,9.101
		c0,1.77-0.386,3.621-1.093,5.28c0.494-0.139,0.998-0.247,1.511-0.334c0.565-1.575,0.88-3.268,0.88-4.924
		c0-5.766-1.683-10.438-9.254-10.438c-7.569,0-9.253,4.674-9.253,10.438c0,4.369,2.112,9.024,5.561,11.029
		c-2.419,0.706-8.438,2.521-9.227,3.28c-1.577,1.517-2.367,5.306-0.794,7.576c0,0,0.957,0.616,10.333,0.737
		C11.029,88.858,10.948,88.415,10.885,87.964z M25.509,89.767l-4.217-2.492l4.217,5.943l4.22-5.943L25.509,89.767z M25.564,79.233
		l-4.217,6.998l4.217,2.492h0.001l4.217-2.492v-0.002L25.564,79.233z M28.37,85.739l-2.806,1.656h-0.001l-2.806-1.656l2.806-4.658
		L28.37,85.739L28.37,85.739z M183.51,77.767l-4.219-2.492l4.219,5.943l4.221-5.943L183.51,77.767z M183.564,67.233l-4.219,6.998
		l4.219,2.492l0,0l4.218-2.492v-0.002L183.564,67.233z M186.37,73.739l-2.806,1.656h-0.002l-2.806-1.656l2.806-4.658L186.37,73.739
		L186.37,73.739z"/>
</g>
</svg>
