<?xml version="1.0" encoding="utf-8"?>
<!-- Generator: Adobe Illustrator 16.0.0, SVG Export Plug-In . SVG Version: 6.00 Build 0)  -->
<!DOCTYPE svg PUBLIC "-//W3C//DTD SVG 1.1//EN" "http://www.w3.org/Graphics/SVG/1.1/DTD/svg11.dtd">
<svg version="1.1" id="Layer_1" xmlns="http://www.w3.org/2000/svg" xmlns:xlink="http://www.w3.org/1999/xlink" x="0px" y="0px"
	 width="305px" height="140px" viewBox="16 0 305 140" enable-background="new 16 0 305 140" xml:space="preserve">
<g id="slide2">
	<path fill="#C21E55" d="M210.691,118.375h-69.968c-0.552,0-1-0.445-1-1V19.36c0-0.552,0.448-1,1-1h69.968c0.553,0,1,0.448,1,1
		v98.015C211.691,117.928,211.244,118.375,210.691,118.375z M141.724,116.375h67.968V20.36h-67.968V116.375z M197.65,102.646
		c0-0.554-0.447-1-1-1H151.9c-0.552,0-1,0.446-1,1c0,0.553,0.448,1,1,1h44.75C197.203,103.646,197.65,103.199,197.65,102.646z
		 M200.15,56.771H150.9c-0.552,0-1-0.447-1-1V30.522c0-0.554,0.448-1,1-1h49.25c0.553,0,1,0.446,1,1v25.249
		C201.15,56.324,200.703,56.771,200.15,56.771z M151.899,54.771h47.251V31.522h-47.251V54.771L151.899,54.771z M158.942,68.807
		l-0.73,1.57c-0.888-0.527-1.943-0.863-2.613-0.863c-0.637,0-1.068,0.229-1.068,0.685c0,1.547,4.474,0.685,4.461,3.705
		c0,1.644-1.428,2.531-3.286,2.531c-1.379,0-2.758-0.527-3.706-1.332l0.756-1.547c0.863,0.769,2.088,1.258,2.975,1.258
		c0.779,0,1.248-0.287,1.248-0.804c0-1.583-4.475-0.659-4.475-3.635c0-1.522,1.307-2.482,3.25-2.482
		C156.927,67.895,158.104,68.254,158.942,68.807z M171.156,72.32v4.054h-1.834v-3.515c0-0.827-0.479-1.318-1.248-1.318
		c-0.888,0.014-1.427,0.708-1.427,1.645v3.188h-1.836v-3.515c0-0.827-0.479-1.318-1.234-1.318c-0.898,0.014-1.439,0.708-1.439,1.645
		v3.188h-1.847v-6.453h1.847v1.116c0.457-0.792,1.213-1.176,2.184-1.188c1.092,0,1.871,0.551,2.184,1.485
		c0.42-0.995,1.234-1.476,2.326-1.485C170.258,69.85,171.156,70.811,171.156,72.32z M176.5,75.618
		c-0.432,0.54-1.127,0.839-2.024,0.839c-1.382,0-2.222-0.839-2.222-2.016c0-1.211,0.877-1.932,2.459-1.942h1.775v-0.12
		c0-0.684-0.455-1.079-1.344-1.079c-0.574,0-1.246,0.191-1.918,0.562l-0.576-1.271c0.959-0.479,1.787-0.743,2.914-0.743
		c1.727,0,2.723,0.861,2.732,2.313l0.014,4.209h-1.812v-0.753L176.5,75.618L176.5,75.618z M176.488,74.167v-0.574h-1.451
		c-0.707,0-1.055,0.216-1.055,0.73c0,0.491,0.383,0.815,1.008,0.815C175.771,75.139,176.381,74.719,176.488,74.167z M181.758,71.085
		c0.443-0.792,1.177-1.224,2.136-1.233v1.738c-1.317-0.119-2.136,0.587-2.136,1.68v3.104h-1.848v-6.453h1.848V71.085z
		 M188.896,76.016c-0.48,0.274-1.08,0.442-1.68,0.442c-1.15,0-2.027-0.66-2.027-1.99V71.48h-0.898v-1.271h0.898v-1.774h1.836v1.774
		h1.75v1.283h-1.75v2.662c0,0.541,0.229,0.756,0.623,0.744c0.24,0,0.527-0.084,0.863-0.239L188.896,76.016z M159.867,83.71
		l-1.104,1.345c-0.576-0.66-1.402-1.093-2.184-1.093c-1.438,0-2.554,1.115-2.554,2.578s1.117,2.592,2.554,2.592
		c0.756,0,1.584-0.385,2.184-0.983l1.115,1.211c-0.888,0.912-2.171,1.5-3.395,1.5c-2.506,0-4.401-1.858-4.401-4.293
		c0-2.424,1.931-4.246,4.474-4.246C157.768,82.318,159.039,82.857,159.867,83.71z M167.175,87.548c0,1.968-1.393,3.298-3.455,3.298
		c-2.074,0-3.466-1.33-3.466-3.298c0-1.979,1.392-3.286,3.466-3.286C165.783,84.262,167.175,85.568,167.175,87.548z M162.113,87.57
		c0,1.056,0.647,1.775,1.606,1.775c0.947,0,1.607-0.722,1.607-1.775c0-1.055-0.66-1.774-1.607-1.774
		C162.761,85.798,162.113,86.518,162.113,87.57z M174.844,86.721v4.055h-1.848v-3.514c0-0.816-0.479-1.32-1.271-1.32
		c-0.925,0.014-1.476,0.709-1.476,1.656v3.178h-1.849v-6.452h1.849v1.127c0.455-0.804,1.224-1.188,2.23-1.199
		C173.92,84.249,174.844,85.209,174.844,86.721z M180.438,90.414c-0.479,0.275-1.08,0.443-1.681,0.443
		c-1.151,0-2.026-0.659-2.026-1.99v-2.985h-0.897v-1.272h0.897v-1.773h1.836v1.773h1.75v1.283h-1.75v2.664
		c0,0.539,0.228,0.754,0.623,0.743c0.24,0,0.526-0.085,0.862-0.239L180.438,90.414z M183.402,85.484
		c0.442-0.791,1.174-1.224,2.135-1.234v1.738c-1.319-0.119-2.135,0.588-2.135,1.68v3.105h-1.849V84.32h1.849V85.484z M190.072,90.02
		c-0.432,0.539-1.127,0.838-2.027,0.838c-1.379,0-2.219-0.838-2.219-2.015c0-1.212,0.877-1.932,2.459-1.942h1.775v-0.121
		c0-0.684-0.455-1.078-1.344-1.078c-0.574,0-1.246,0.191-1.918,0.562l-0.576-1.271c0.959-0.479,1.787-0.744,2.914-0.744
		c1.727,0,2.723,0.864,2.734,2.315l0.012,4.209h-1.812V90.02H190.072z M190.061,88.566v-0.575h-1.451
		c-0.707,0-1.055,0.216-1.055,0.731c0,0.491,0.383,0.813,1.006,0.813C189.342,89.538,189.953,89.118,190.061,88.566z
		 M199.035,85.616l-1.246,0.899c-0.35-0.435-0.84-0.695-1.477-0.687c-0.898,0-1.535,0.694-1.535,1.729
		c0,1.043,0.637,1.75,1.535,1.75c0.66,0,1.176-0.25,1.5-0.754l1.271,0.86c-0.541,0.899-1.547,1.428-2.865,1.428
		c-1.955,0-3.287-1.317-3.287-3.272c0-1.979,1.332-3.312,3.311-3.312C197.477,84.262,198.459,84.753,199.035,85.616z
		 M204.232,90.414c-0.48,0.275-1.08,0.443-1.68,0.443c-1.15,0-2.027-0.659-2.027-1.99v-2.985h-0.898v-1.272h0.898v-1.773h1.836
		v1.773h1.75v1.283h-1.75v2.664c0,0.539,0.229,0.754,0.623,0.743c0.24,0,0.527-0.085,0.863-0.239L204.232,90.414z M310.543,71.354
		c2.576-2.463,4.115-6.683,4.115-10.677c0-6.142-1.652-11.118-9.094-11.118c-7.443,0-9.096,4.978-9.096,11.118
		c0,4.008,1.545,8.233,4.137,10.696c-2.707,0.641-8.004,1.951-8.809,2.654c-1.73,1.514-2.599,5.295-0.869,7.562
		c0,0,0.986,0.757,14.705,0.757c13.721,0,14.576-0.757,14.576-0.757c1.715-2.267,0.854-6.048-0.855-7.562
		C318.572,73.342,313.197,71.991,310.543,71.354 M319.127,80.219c-0.996,0.172-4.172,0.521-13.492,0.521
		c-9.395,0-12.614-0.354-13.633-0.525c-0.797-1.604-0.117-4.038,0.869-4.956c0.459-0.267,2.641-1.03,8.129-2.323l2.896-0.683
		l-2.125-2.021c-2.209-2.104-3.641-5.854-3.641-9.553c0-6.847,2.082-9.515,7.434-9.515c5.348,0,7.43,2.668,7.43,9.515
		c0,3.688-1.418,7.432-3.619,9.535l-2.104,2.013l2.871,0.688c5.484,1.313,7.672,2.081,8.137,2.347
		C319.258,76.178,319.928,78.615,319.127,80.219 M37.052,75.126l-15.771-8.201H17.49L37.052,77.1l19.562-10.175h-3.792
		L37.052,75.126z M58.248,57.597L37.052,46.575L15.857,57.597l21.195,11.022L58.248,57.597z M37.052,48.548l17.403,9.05
		L37.052,66.65l-17.404-9.053L37.052,48.548z M37.052,83.604l-15.771-8.201H17.49l19.562,10.175l19.562-10.175h-3.792L37.052,83.604
		z"/>
	<path fill="#E0E0E0" d="M216.385,123.998h-81.441V13.002h81.441V123.998z M135.943,122.998h79.441V14.002h-79.441V122.998z
		 M128.729,66.614H60.924v1h67.805V66.614z M129.607,66.865l-6.763-6.763l-0.707,0.707l6.763,6.763L129.607,66.865z M129.282,67.269
		l-0.707-0.707l-6.763,6.763l0.707,0.707L129.282,67.269z M282.301,66.614h-65.805v1h65.805V66.614z M283.18,66.865l-6.764-6.763
		l-0.707,0.707l6.764,6.763L283.18,66.865z M282.854,67.269l-0.707-0.707l-6.762,6.763l0.707,0.707L282.854,67.269z"/>
</g>
</svg>
