<?xml version="1.0" encoding="utf-8"?>
<!-- Generator: Adobe Illustrator 16.0.0, SVG Export Plug-In . SVG Version: 6.00 Build 0)  -->
<!DOCTYPE svg PUBLIC "-//W3C//DTD SVG 1.1//EN" "http://www.w3.org/Graphics/SVG/1.1/DTD/svg11.dtd">
<svg version="1.1" id="Layer_1" xmlns="http://www.w3.org/2000/svg" xmlns:xlink="http://www.w3.org/1999/xlink" x="0px" y="0px"
	 width="295px" height="140px" viewBox="21 0 295 140" enable-background="new 21 0 295 140" xml:space="preserve">
<g id="slide-4">
	<path fill="#E0E0E0" d="M130.629,69.359H96.986v-1h33.643V69.359z M131.507,68.609l-6.763-6.764l-0.707,0.707l6.763,6.764
		L131.507,68.609z M131.182,69.012l-0.706-0.705l-6.764,6.761l0.707,0.707L131.182,69.012z M256.749,69.65l-54.808-0.279l-0.006,1
		l54.806,0.279L256.749,69.65z M257.622,70.404l-0.703-0.711l-6.791,6.732l0.703,0.711L257.622,70.404z M257.3,69.998l-6.733-6.791
		l-0.711,0.705l6.733,6.791L257.3,69.998z"/>
	<path fill="#C61E56" d="M45.733,61.387v10.936h-0.004v3.655h-6.077c-4.562,0-8.282-3.721-8.282-8.28v-6.311h3.655v6.311
		c0,2.555,2.07,4.625,4.627,4.625h2.427V61.387H45.733z M57.188,61.387h-3.649v3.656h-0.007v9.51c0,2.85-2.329,5.211-5.208,5.211
		H24.658V57.492h26.309c-0.527-0.643-0.854-1.449-0.854-2.338c0-0.469,0.094-0.91,0.248-1.32H21v29.588h27.325V83.42
		c4.885,0,8.864-3.979,8.864-8.865L57.188,61.387L57.188,61.387z M55.214,57.473c1.326,0,2.426-1.1,2.426-2.426
		c0-1.359-1.1-2.428-2.426-2.428c-1.359,0-2.427,1.068-2.427,2.428C52.787,56.373,53.855,57.473,55.214,57.473z M69.644,76.398
		c-4.238,0-7.699-3.463-7.699-7.699c0-4.271,3.461-7.73,7.699-7.73c4.271,0,7.732,3.461,7.732,7.73
		C77.376,72.936,73.914,76.398,69.644,76.398z M69.644,72.742c2.265,0,4.076-1.811,4.076-4.043c0-2.264-1.812-4.076-4.076-4.076
		c-2.232,0-4.044,1.812-4.044,4.076C65.6,70.932,67.411,72.742,69.644,72.742z M59.823,53.834c0.156,0.41,0.253,0.852,0.253,1.32
		c0,0.889-0.337,1.695-0.87,2.338h24.502v22.271H58.714c-0.568,1.395-1.428,2.635-2.5,3.655h31.151V53.832H59.823V53.834z
		 M158.903,91.951l-0.93-0.367c-9.256-3.666-15.236-12.469-15.236-22.424c0-13.295,10.816-24.111,24.111-24.111
		c13.294,0,24.109,10.816,24.109,24.111c0,9.957-5.98,18.758-15.234,22.424l-0.93,0.367l-6.582-16.631l0.93-0.369
		c2.394-0.947,3.938-3.221,3.938-5.791c0-3.436-2.795-6.23-6.23-6.23s-6.232,2.795-6.232,6.23c0,2.57,1.547,4.844,3.939,5.791
		l0.93,0.369L158.903,91.951z M170.786,76.387l5.123,12.949c7.961-3.566,13.051-11.381,13.051-20.176
		c0-12.191-9.918-22.111-22.109-22.111c-12.193,0-22.111,9.92-22.111,22.111c0,8.795,5.089,16.607,13.051,20.176l5.123-12.947
		c-2.639-1.43-4.295-4.17-4.295-7.229c0-4.539,3.693-8.23,8.232-8.23c4.538,0,8.23,3.691,8.23,8.23
		C175.081,72.219,173.425,74.959,170.786,76.387z M294.564,72.961c2.729-2.609,4.359-7.078,4.359-11.309
		c0-6.502-1.752-11.775-9.633-11.775s-9.633,5.273-9.633,11.775c0,4.244,1.635,8.723,4.381,11.333
		c-2.869,0.676-8.477,2.063-9.33,2.811c-1.828,1.602-2.75,5.607-0.92,8.008c0,0,1.047,0.801,15.576,0.801s15.436-0.801,15.436-0.801
		c1.816-2.4,0.91-6.406-0.904-8.008C303.068,75.066,297.376,73.637,294.564,72.961 M303.657,82.352
		c-1.058,0.181-4.421,0.551-14.291,0.551c-9.951,0-13.361-0.373-14.438-0.559c-0.847-1.699-0.123-4.277,0.92-5.25
		c0.485-0.281,2.797-1.092,8.608-2.461l3.069-0.723l-2.252-2.141c-2.342-2.229-3.854-6.2-3.854-10.118
		c0-7.25,2.205-10.076,7.873-10.076c5.664,0,7.869,2.826,7.869,10.076c0,3.906-1.504,7.871-3.834,10.1l-2.229,2.131l3.041,0.729
		c5.809,1.392,8.125,2.205,8.617,2.482C303.794,78.07,304.503,80.652,303.657,82.352 M314.318,72.32
		c-0.827-0.729-6.521-2.16-9.332-2.834c2.729-2.609,4.359-7.076,4.359-11.309c0-6.504-1.752-11.775-9.633-11.775
		c-2.436,0-4.279,0.506-5.674,1.391c1.182,0.066,2.213,0.258,3.104,0.566c0.767-0.168,1.615-0.256,2.568-0.256
		c5.666,0,7.869,2.824,7.869,10.074c0,3.906-1.502,7.871-3.832,10.102l-2.229,2.129l3.039,0.727
		c5.811,1.395,8.127,2.207,8.616,2.484c1.037,0.977,1.746,3.559,0.898,5.258c-0.677,0.117-2.32,0.312-6.021,0.436
		c-0.014,0.588-0.121,1.16-0.293,1.709c6.893-0.221,7.459-0.69,7.459-0.69C317.042,77.928,316.134,73.922,314.318,72.32"/>
</g>
</svg>
