<?xml version="1.0" encoding="utf-8"?>
<!-- Generator: Adobe Illustrator 16.0.0, SVG Export Plug-In . SVG Version: 6.00 Build 0)  -->
<!DOCTYPE svg PUBLIC "-//W3C//DTD SVG 1.1//EN" "http://www.w3.org/Graphics/SVG/1.1/DTD/svg11.dtd">
<svg version="1.1" id="Layer_1" xmlns="http://www.w3.org/2000/svg" xmlns:xlink="http://www.w3.org/1999/xlink" x="0px" y="0px"
	 width="337px" height="140px" viewBox="0 -1.5 337 140" enable-background="new 0 -1.5 337 140" xml:space="preserve">
<g id="Slide1">
	<path fill="#FACEDC" d="M316.167,31.537c-0.174,0-0.347-0.044-0.5-0.134l-20.001-11.541c-0.311-0.179-0.5-0.509-0.5-0.866
		c0-0.357,0.189-0.688,0.5-0.866l20.001-11.552c0.31-0.179,0.69-0.179,1,0l19.999,11.552c0.311,0.179,0.5,0.509,0.5,0.866
		c0,0.357-0.189,0.688-0.5,0.866l-19.999,11.541C316.512,31.492,316.34,31.537,316.167,31.537z M298.166,18.995l18.001,10.387
		l17.999-10.387L316.167,8.599L298.166,18.995z M316.167,54.631c-0.174,0-0.347-0.044-0.5-0.134l-20.001-11.541
		c-0.311-0.179-0.5-0.509-0.5-0.866V18.996c0-0.357,0.189-0.688,0.5-0.866c0.309-0.179,0.688-0.179,1,0l20.001,11.541
		c0.312,0.179,0.5,0.509,0.5,0.866V53.63c0,0.357-0.188,0.688-0.5,0.866C316.514,54.586,316.34,54.631,316.167,54.631z
		 M297.166,41.511l18.001,10.387V31.114l-18.001-10.387V41.511z M316.165,54.631c-0.174,0-0.347-0.045-0.5-0.134
		c-0.312-0.178-0.5-0.508-0.5-0.866V30.537c0-0.357,0.188-0.688,0.5-0.866l20.001-11.541c0.312-0.179,0.689-0.178,1,0
		s0.5,0.508,0.5,0.866v23.093c0,0.357-0.189,0.688-0.5,0.866l-20.001,11.541C316.51,54.586,316.338,54.631,316.165,54.631z
		 M317.165,31.114v20.784l18.001-10.387V20.728L317.165,31.114z"/>
	<path fill="#E0E0E0" d="M81.441,115.674H0V4.676h81.441V115.674L81.441,115.674z M0.999,114.674H80.44V5.676H0.999V114.674z
		 M227.043,25.965C250.785,2.398,277.895-1.324,293.887,2.65c10.445,2.595,17.86,8.653,20.346,16.62l0.955-0.298
		c-2.59-8.309-10.267-14.612-21.06-17.292c-16.249-4.037-43.752-0.284-67.79,23.575c-11.014,10.932-28.871,22.739-51.415,16.915
		c-13.515-3.492-22.432-11.79-22.499-11.853c-0.068-0.072-6.98-7.284-19.222-10.112c-20.418-4.719-39.761,6.105-52.39,16.014
		l0.617,0.787c22.544-17.689,40.445-18.375,51.492-15.84c11.966,2.748,18.708,9.767,18.796,9.858
		c0.09,0.085,9.165,8.539,22.915,12.104c4.229,1.096,8.292,1.586,12.181,1.585C204.094,44.712,217.895,35.044,227.043,25.965z"/>
	<path fill="#999999" d="M200.771,100.703c-0.332,0-0.654-0.164-0.847-0.463c-0.297-0.466-0.157-1.084,0.308-1.38l0.845-0.537
		c0.47-0.296,1.084-0.159,1.382,0.308c0.297,0.467,0.158,1.084-0.309,1.381l-0.844,0.537
		C201.141,100.653,200.954,100.703,200.771,100.703z M204.146,98.555c-0.332,0-0.654-0.164-0.847-0.463
		c-0.297-0.465-0.157-1.084,0.308-1.379l0.845-0.537c0.469-0.297,1.085-0.16,1.382,0.308c0.297,0.466,0.158,1.084-0.309,1.38
		l-0.844,0.537C204.516,98.506,204.329,98.555,204.146,98.555z M207.52,96.408c-0.33,0-0.652-0.164-0.845-0.463
		c-0.297-0.466-0.159-1.084,0.308-1.38l0.845-0.537c0.469-0.296,1.085-0.159,1.382,0.308s0.158,1.084-0.309,1.381l-0.844,0.537
		C207.891,96.358,207.703,96.408,207.52,96.408z M210.895,94.26c-0.33,0-0.652-0.164-0.845-0.463
		c-0.297-0.465-0.159-1.084,0.308-1.381l0.845-0.537c0.468-0.297,1.084-0.16,1.382,0.309c0.297,0.466,0.158,1.084-0.309,1.381
		l-0.844,0.537C211.266,94.213,211.078,94.26,210.895,94.26z M214.27,92.114c-0.33,0-0.652-0.164-0.845-0.463
		c-0.297-0.467-0.159-1.084,0.308-1.381l0.845-0.537c0.467-0.297,1.084-0.16,1.382,0.308c0.297,0.467,0.158,1.084-0.309,1.381
		l-0.844,0.537C214.641,92.064,214.453,92.114,214.27,92.114z M245.667,73.37c-0.331,0-0.653-0.163-0.847-0.463
		c-0.297-0.466-0.158-1.084,0.309-1.38l0.844-0.537c0.469-0.297,1.086-0.158,1.381,0.309c0.297,0.465,0.16,1.084-0.307,1.379
		l-0.845,0.537C246.035,73.32,245.852,73.37,245.667,73.37z M249.042,71.223c-0.331,0-0.653-0.164-0.847-0.463
		c-0.297-0.467-0.158-1.084,0.309-1.381l0.844-0.537c0.469-0.297,1.086-0.159,1.381,0.308c0.297,0.465,0.16,1.083-0.307,1.379
		l-0.845,0.537C249.41,71.174,249.227,71.223,249.042,71.223z M252.416,69.075c-0.331,0-0.654-0.165-0.846-0.463
		c-0.297-0.466-0.159-1.084,0.308-1.38l0.845-0.537c0.469-0.297,1.084-0.16,1.381,0.307c0.297,0.466,0.158,1.084-0.308,1.38
		l-0.845,0.537C252.784,69.026,252.6,69.075,252.416,69.075z M255.791,66.928c-0.33,0-0.654-0.164-0.846-0.463
		c-0.297-0.466-0.159-1.084,0.308-1.381l0.845-0.537c0.467-0.297,1.084-0.159,1.381,0.307c0.297,0.466,0.158,1.084-0.308,1.381
		l-0.845,0.537C256.159,66.879,255.975,66.928,255.791,66.928z M259.166,64.78c-0.33,0-0.654-0.164-0.846-0.463
		c-0.297-0.466-0.159-1.084,0.308-1.381l0.845-0.537c0.467-0.297,1.084-0.159,1.381,0.307c0.297,0.466,0.158,1.084-0.308,1.381
		l-0.845,0.537C259.534,64.731,259.35,64.78,259.166,64.78z M291.555,46.744c-0.33,0-0.652-0.164-0.845-0.463
		c-0.298-0.466-0.159-1.084,0.308-1.38l0.844-0.537c0.469-0.297,1.084-0.159,1.382,0.307c0.297,0.466,0.159,1.084-0.308,1.38
		l-0.845,0.537C291.924,46.694,291.736,46.744,291.555,46.744z M294.93,44.596c-0.33,0-0.652-0.164-0.845-0.463
		c-0.298-0.466-0.159-1.084,0.308-1.38l0.844-0.537c0.469-0.297,1.086-0.159,1.382,0.307c0.297,0.466,0.159,1.084-0.308,1.38
		l-0.845,0.537C295.299,44.547,295.111,44.596,294.93,44.596z M298.305,42.449c-0.332,0-0.654-0.164-0.846-0.463
		c-0.298-0.466-0.159-1.084,0.307-1.38l0.846-0.537c0.468-0.297,1.084-0.159,1.381,0.307c0.297,0.466,0.158,1.084-0.309,1.38
		l-0.844,0.537C298.673,42.4,298.486,42.449,298.305,42.449z M301.68,40.302c-0.33,0-0.654-0.164-0.846-0.463
		c-0.298-0.466-0.159-1.084,0.307-1.381l0.846-0.537c0.467-0.298,1.084-0.159,1.381,0.307c0.297,0.466,0.158,1.084-0.309,1.381
		l-0.844,0.537C302.048,40.253,301.861,40.302,301.68,40.302z M305.055,38.154c-0.33,0-0.654-0.164-0.846-0.463
		c-0.298-0.466-0.159-1.084,0.307-1.381l0.846-0.537c0.466-0.296,1.084-0.159,1.381,0.307c0.297,0.466,0.158,1.084-0.309,1.381
		l-0.844,0.537C305.423,38.105,305.236,38.154,305.055,38.154z"/>
	<path fill="#C21E55" d="M75.748,110.049H5.778c-0.552,0-1-0.448-1-1V11.034c0-0.552,0.448-1,1-1h69.97c0.552,0,1,0.448,1,1v98.015
		C76.748,109.601,76.3,110.049,75.748,110.049z M6.779,108.049h67.97V12.034H6.779V108.049z M64.206,94.321c0-0.552-0.448-1-1-1
		h-44.75c-0.553,0-1,0.448-1,1s0.447,1,1,1h44.75C63.758,95.321,64.206,94.873,64.206,94.321z M65.206,48.446h-49.25
		c-0.553,0-1-0.448-1-1v-25.25c0-0.552,0.447-1,1-1h49.25c0.552,0,1,0.448,1,1v25.25C66.206,47.998,65.758,48.446,65.206,48.446z
		 M16.956,46.446h47.25v-23.25h-47.25V46.446z M178.214,113.631c-0.173,0-0.346-0.045-0.5-0.135l-20.001-11.541
		c-0.311-0.179-0.5-0.509-0.5-0.865s0.189-0.688,0.5-0.867l20.001-11.551c0.31-0.18,0.69-0.18,1,0l19.999,11.551
		c0.311,0.181,0.5,0.511,0.5,0.867s-0.189,0.688-0.5,0.865l-19.999,11.541C178.559,113.588,178.387,113.631,178.214,113.631z
		 M160.213,101.09l18.001,10.388l17.999-10.388l-17.999-10.396L160.213,101.09z M178.214,136.723c-0.173,0-0.346-0.043-0.5-0.133
		l-20.001-11.541c-0.311-0.18-0.5-0.51-0.5-0.867V101.09c0-0.356,0.189-0.688,0.5-0.867c0.309-0.178,0.688-0.178,1,0l20.001,11.541
		c0.31,0.181,0.5,0.511,0.5,0.867v23.092c0,0.357-0.19,0.688-0.5,0.867C178.561,136.678,178.387,136.723,178.214,136.723z
		 M159.213,123.605l18.001,10.387v-20.783l-18.001-10.388V123.605L159.213,123.605z M178.212,136.723
		c-0.174,0-0.347-0.045-0.5-0.133c-0.312-0.179-0.5-0.508-0.5-0.867v-23.092c0-0.356,0.188-0.688,0.5-0.867l20.001-11.541
		c0.311-0.178,0.689-0.178,1,0c0.311,0.18,0.5,0.51,0.5,0.867v23.092c0,0.357-0.189,0.688-0.5,0.867l-20.001,11.541
		C178.557,136.678,178.385,136.723,178.212,136.723z M179.212,113.211v20.782l18.001-10.387v-20.784L179.212,113.211z
		 M224.197,86.266c-0.174,0-0.346-0.045-0.5-0.135l-20.002-11.539c-0.309-0.181-0.5-0.51-0.5-0.866c0-0.357,0.191-0.688,0.5-0.866
		l20.002-11.553c0.31-0.179,0.691-0.179,1,0l19.998,11.553c0.312,0.179,0.5,0.509,0.5,0.866c0,0.356-0.188,0.688-0.5,0.866
		l-19.998,11.539C224.543,86.221,224.37,86.266,224.197,86.266z M206.195,73.726l18.002,10.387l17.998-10.387l-17.998-10.397
		L206.195,73.726z M224.197,109.359c-0.174,0-0.346-0.044-0.5-0.134l-20.002-11.541c-0.309-0.181-0.5-0.511-0.5-0.866V73.726
		c0-0.357,0.191-0.688,0.5-0.866c0.311-0.18,0.688-0.18,1,0L224.697,84.4c0.311,0.179,0.5,0.509,0.5,0.865v23.094
		c0,0.355-0.189,0.688-0.5,0.866C224.544,109.314,224.37,109.359,224.197,109.359z M205.195,96.24l18.002,10.389V85.842
		l-18.002-10.387V96.24L205.195,96.24z M224.195,109.359c-0.172,0-0.346-0.045-0.5-0.134c-0.309-0.179-0.5-0.509-0.5-0.866V85.266
		c0-0.356,0.191-0.688,0.5-0.865l20.002-11.541c0.312-0.18,0.691-0.178,1,0c0.311,0.178,0.5,0.508,0.5,0.866v23.093
		c0,0.355-0.189,0.688-0.5,0.866l-20.002,11.541C224.541,109.315,224.368,109.359,224.195,109.359z M225.195,85.844v20.783
		l18.002-10.387V75.459L225.195,85.844z M270.184,58.902c-0.174,0-0.346-0.044-0.5-0.134l-20.002-11.541
		c-0.311-0.179-0.5-0.509-0.5-0.866s0.189-0.688,0.5-0.866l20.002-11.552c0.31-0.179,0.69-0.179,1,0l19.998,11.552
		c0.312,0.179,0.5,0.509,0.5,0.866s-0.188,0.688-0.5,0.866l-19.998,11.541C270.527,58.858,270.355,58.902,270.184,58.902z
		 M252.182,46.36l18.002,10.387l17.998-10.387l-17.998-10.396L252.182,46.36z M270.184,81.994c-0.174,0-0.346-0.044-0.5-0.134
		l-20.002-11.541c-0.311-0.179-0.5-0.509-0.5-0.866V46.36c0-0.357,0.189-0.688,0.5-0.866c0.311-0.179,0.688-0.179,1,0l20.002,11.541
		c0.311,0.179,0.5,0.509,0.5,0.866v23.092c0,0.356-0.189,0.688-0.5,0.866C270.527,81.949,270.355,81.994,270.184,81.994z
		 M251.182,68.877l18.002,10.387V58.48l-18.002-10.387V68.877z M270.182,81.994c-0.174,0-0.347-0.045-0.5-0.134
		c-0.312-0.179-0.5-0.508-0.5-0.866V57.902c0-0.357,0.188-0.688,0.5-0.866l20-11.541c0.312-0.179,0.691-0.178,1,0
		c0.312,0.178,0.5,0.508,0.5,0.866v23.092c0,0.357-0.188,0.688-0.5,0.866l-20,11.542C270.525,81.95,270.354,81.994,270.182,81.994z
		 M271.182,58.48v20.784l18-10.387V48.092L271.182,58.48z M23.382,60.267l-0.731,1.571c-0.888-0.528-1.942-0.864-2.614-0.864
		c-0.637,0-1.067,0.228-1.067,0.684c0,1.547,4.474,0.684,4.461,3.706c0,1.643-1.427,2.531-3.286,2.531
		c-1.379,0-2.758-0.528-3.706-1.332l0.756-1.547c0.863,0.768,2.088,1.259,2.975,1.259c0.78,0,1.248-0.288,1.248-0.804
		c0-1.583-4.475-0.66-4.475-3.634c0-1.523,1.308-2.483,3.25-2.483C21.367,59.356,22.542,59.715,23.382,60.267z M35.595,63.781v4.054
		H33.76v-3.514c0-0.828-0.479-1.319-1.247-1.319c-0.888,0.012-1.427,0.708-1.427,1.643v3.19h-1.835v-3.514
		c0-0.828-0.48-1.319-1.235-1.319c-0.898,0.012-1.438,0.708-1.438,1.643v3.19H24.73v-6.453h1.848v1.116
		c0.456-0.792,1.211-1.175,2.183-1.188c1.091,0,1.871,0.552,2.183,1.487c0.421-0.996,1.235-1.475,2.327-1.487
		C34.696,61.31,35.595,62.271,35.595,63.781z M40.939,67.079c-0.432,0.54-1.127,0.839-2.026,0.839c-1.379,0-2.22-0.839-2.22-2.015
		c0-1.211,0.875-1.931,2.458-1.943h1.775v-0.12c0-0.684-0.456-1.08-1.343-1.08c-0.576,0-1.248,0.192-1.919,0.563l-0.576-1.271
		c0.959-0.48,1.787-0.744,2.914-0.744c1.727,0,2.723,0.863,2.734,2.315l0.013,4.209h-1.812L40.939,67.079L40.939,67.079z
		 M40.927,65.629v-0.575h-1.452c-0.708,0-1.055,0.216-1.055,0.731c0,0.492,0.384,0.815,1.007,0.815
		C40.207,66.599,40.819,66.179,40.927,65.629z M46.196,62.547c0.443-0.792,1.175-1.223,2.135-1.235v1.739
		c-1.319-0.12-2.135,0.587-2.135,1.679v3.106h-1.848v-6.453h1.848V62.547z M53.334,67.475c-0.48,0.276-1.08,0.444-1.679,0.444
		c-1.151,0-2.027-0.66-2.027-1.991v-2.987h-0.899V61.67h0.899v-1.775h1.835v1.775h1.751v1.283h-1.751v2.663
		c0,0.54,0.228,0.755,0.624,0.744c0.24,0,0.528-0.084,0.864-0.24L53.334,67.475z M24.305,75.172l-1.103,1.344
		c-0.576-0.66-1.403-1.092-2.184-1.092c-1.438,0-2.555,1.114-2.555,2.578c0,1.463,1.116,2.592,2.555,2.592
		c0.756,0,1.583-0.385,2.184-0.983l1.114,1.211c-0.888,0.911-2.171,1.499-3.394,1.499c-2.507,0-4.402-1.859-4.402-4.293
		c0-2.423,1.932-4.246,4.475-4.246C22.206,73.779,23.477,74.319,24.305,75.172z M31.613,79.008c0,1.968-1.392,3.297-3.454,3.297
		c-2.075,0-3.467-1.329-3.467-3.297c0-1.979,1.392-3.285,3.467-3.285C30.222,75.723,31.613,77.029,31.613,79.008z M26.552,79.032
		c0,1.056,0.647,1.774,1.607,1.774c0.947,0,1.606-0.721,1.606-1.774c0-1.057-0.66-1.774-1.606-1.774
		C27.2,77.258,26.552,77.978,26.552,79.032z M39.282,78.18v4.056h-1.848v-3.515c0-0.814-0.479-1.318-1.271-1.318
		c-0.923,0.012-1.476,0.708-1.476,1.654v3.179H32.84v-6.453h1.847v1.127c0.456-0.803,1.225-1.187,2.231-1.198
		C38.358,75.711,39.282,76.672,39.282,78.18z M44.875,81.877c-0.48,0.274-1.08,0.442-1.679,0.442c-1.151,0-2.027-0.66-2.027-1.991
		v-2.984H40.27v-1.271h0.899v-1.775h1.835v1.774h1.751v1.283h-1.751v2.662c0,0.54,0.228,0.756,0.624,0.743
		c0.24,0,0.528-0.084,0.864-0.238L44.875,81.877z M47.84,76.946c0.444-0.792,1.175-1.224,2.135-1.233v1.737
		c-1.318-0.12-2.135,0.587-2.135,1.681v3.104h-1.847v-6.453h1.847V76.946z M54.511,81.479c-0.432,0.54-1.127,0.839-2.027,0.839
		c-1.379,0-2.219-0.839-2.219-2.016c0-1.211,0.875-1.932,2.458-1.942h1.775v-0.12c0-0.686-0.456-1.08-1.343-1.08
		c-0.576,0-1.248,0.192-1.92,0.562l-0.575-1.271c0.959-0.479,1.787-0.743,2.914-0.743c1.727,0,2.723,0.863,2.733,2.314l0.012,4.209
		h-1.811v-0.754L54.511,81.479L54.511,81.479z M54.499,80.028v-0.576h-1.451c-0.708,0-1.056,0.218-1.056,0.732
		c0,0.491,0.384,0.813,1.007,0.813C53.779,81,54.391,80.579,54.499,80.028z M63.474,77.077l-1.247,0.898
		c-0.348-0.433-0.84-0.694-1.476-0.683c-0.899,0-1.535,0.694-1.535,1.727c0,1.043,0.636,1.751,1.535,1.751
		c0.66,0,1.176-0.251,1.5-0.757l1.271,0.863c-0.54,0.9-1.547,1.428-2.865,1.428c-1.955,0-3.286-1.318-3.286-3.273
		c0-1.979,1.331-3.311,3.31-3.311C61.914,75.723,62.898,76.215,63.474,77.077z M68.67,81.877c-0.48,0.274-1.08,0.442-1.679,0.442
		c-1.151,0-2.027-0.66-2.027-1.991v-2.984h-0.899v-1.271h0.899v-1.775h1.835v1.774h1.751v1.283h-1.751v2.662
		c0,0.54,0.228,0.756,0.624,0.743c0.24,0,0.528-0.084,0.864-0.238L68.67,81.877z"/>
</g>
</svg>
