<?xml version="1.0" encoding="utf-8"?>
<!-- Generator: Adobe Illustrator 16.0.0, SVG Export Plug-In . SVG Version: 6.00 Build 0)  -->
<!DOCTYPE svg PUBLIC "-//W3C//DTD SVG 1.1//EN" "http://www.w3.org/Graphics/SVG/1.1/DTD/svg11.dtd">
<svg version="1.1" id="Layer_1" xmlns="http://www.w3.org/2000/svg" xmlns:xlink="http://www.w3.org/1999/xlink" x="0px" y="0px"
	 width="211px" height="41px" viewBox="84 22 211 41" enable-background="new 84 22 211 41" xml:space="preserve">
<path fill="#C60153" d="M117.557,33.34v14.644h-0.006v4.896h-8.138c-6.109,0-11.091-4.982-11.091-11.091V33.34h4.896v8.449
	c0,3.422,2.773,6.195,6.196,6.195h3.249V33.34H117.557z M132.897,33.34h-4.888v4.895h-0.008v12.738c0,3.812-3.12,6.976-6.975,6.976
	H89.332V28.121h35.233c-0.707-0.857-1.145-1.94-1.145-3.128c0-0.628,0.125-1.22,0.332-1.769H84.434v39.623h36.592v-0.003
	c6.542,0,11.872-5.329,11.872-11.871L132.897,33.34L132.897,33.34z M130.254,28.098c1.776,0,3.249-1.474,3.249-3.25
	c0-1.819-1.473-3.249-3.249-3.249c-1.82,0-3.25,1.43-3.25,3.249C127.004,26.625,128.434,28.098,130.254,28.098z M149.578,53.441
	c-5.676,0-10.311-4.636-10.311-10.311c0-5.719,4.636-10.354,10.311-10.354c5.719,0,10.354,4.635,10.354,10.354
	C159.933,48.807,155.297,53.441,149.578,53.441z M149.578,48.545c3.032,0,5.459-2.425,5.459-5.414c0-3.033-2.426-5.459-5.459-5.459
	c-2.99,0-5.416,2.426-5.416,5.459C144.163,46.12,146.588,48.545,149.578,48.545z M136.426,23.224
	c0.211,0.548,0.339,1.14,0.339,1.769c0,1.188-0.45,2.271-1.166,3.128h32.813v29.828H134.94c-0.761,1.866-1.911,3.529-3.347,4.898
	h41.717V23.224H136.426z M183.685,29.102h1.392l11.849,16.438l12.3-16.438h1.355v27.459h-1.43V31.434l-12.226,16.438l-11.849-16.326
	v25.014h-1.392V29.102z M216.371,47.646V29.102h1.393v18.545c0,4.438,3.497,7.974,7.936,7.974c4.439,0,7.976-3.535,7.976-7.974
	V29.102h1.391v18.507c0,5.191-4.062,9.329-9.367,9.329C220.396,56.938,216.371,52.8,216.371,47.646z M239.353,52.987l1.166-0.903
	c1.655,2.106,4.364,3.574,7.486,3.574c3.912,0,7.26-2.408,7.26-6.433c0-4.1-3.573-5.304-7.222-6.469
	c-3.874-1.242-7.749-2.559-7.749-7.26c0-4.063,3.46-6.771,7.898-6.771c3.499,0,5.98,1.354,7.674,3.423l-1.129,0.828
	c-1.391-1.881-3.573-2.972-6.582-2.972c-3.536,0-6.47,2.144-6.47,5.492c0,3.912,3.535,4.965,7.185,6.131
	c3.873,1.241,7.824,2.784,7.824,7.598c0,4.552-3.762,7.712-8.689,7.712C244.317,56.938,241.196,55.318,239.353,52.987z
	 M262.071,29.102h1.43v27.459h-1.43V29.102z M268.879,42.831c0-7.787,6.318-14.105,14.104-14.105c5.078,0,9.555,2.746,11.999,6.771
	l-1.166,0.677c-2.219-3.648-6.131-6.131-10.833-6.131c-7.072,0-12.639,5.755-12.639,12.79s5.566,12.789,12.639,12.789
	c4.928,0,9.028-2.633,11.209-6.545l1.241,0.64c-2.445,4.325-7.033,7.222-12.45,7.222C275.197,56.938,268.879,50.617,268.879,42.831z
	"/>
</svg>
